<svg xmlns="http://www.w3.org/2000/svg" xmlns:xlink="http://www.w3.org/1999/xlink" version="1.2" baseProfile="tiny" x="0px" y="0px" viewBox="0 0 100 100" xml:space="preserve"><path fill="#000000" d="M96.2,3.8c-1.5-1.5-3.5-2.3-5.7-2.3s-4.1,0.8-5.7,2.3c-2.8,2.8-3.1,7-1,10.2l-4.6,4.6  c-8.4-7.3-21.3-7-29.3,1c-0.2,0.2-6,6.1-12,14.7C29.9,46,25.6,56.6,25.3,65.9c0,0.4-0.1,0.8,0,1.2c0,0,0,0.1,0,0.1  c0.1,1.5,0.6,2.9,1.4,4.1L1.9,95.9c-0.6,0.6-0.6,1.5,0,2.1c0.3,0.3,0.7,0.4,1.1,0.4s0.8-0.1,1.1-0.4l24.7-24.7  c1.2,0.8,2.6,1.3,4.1,1.4c0,0,0,0,0.1,0c0.1,0,0.2,0,0.3,0c0.3,0,0.6,0,0.9,0C43.4,74.4,54,70.1,65.6,62c8.6-6,14.5-11.8,14.7-12  c8-8,8.3-20.9,1-29.3l4.6-4.6c1.3,0.9,2.9,1.4,4.5,1.4c2.1,0,4.1-0.8,5.7-2.3c1.5-1.5,2.3-3.5,2.3-5.7S97.7,5.4,96.2,3.8z   M33.9,71.7c0,0-0.1,0-0.1,0c-0.3,0-0.5,0-0.8,0c0,0,0,0,0,0c-1.2-0.1-2.4-0.6-3.3-1.5c-0.9-0.9-1.4-2-1.4-3.2c0,0,0,0,0,0  c0-0.3,0-0.6,0-0.8c0,0,0-0.1,0-0.1C29,45.3,51.9,22,52.1,21.7c0.6-0.6,1.2-1.1,1.8-1.6l25.9,25.9c-0.5,0.6-1,1.2-1.6,1.8  C78,48.1,54.8,71,33.9,71.7z M81.5,43.5l-25-25c7-3.7,15.9-2.7,21.8,3.2C84.1,27.6,85.2,36.5,81.5,43.5z M94,13  c-0.9,0.9-2.2,1.5-3.5,1.5c-1.3,0-2.6-0.5-3.5-1.5C85,11.1,85,7.9,87,6c0.9-0.9,2.2-1.5,3.5-1.5C91.8,4.5,93.1,5,94,6  c0.9,0.9,1.5,2.2,1.5,3.5S95,12.1,94,13z"></path></svg>